<svg width="1200" height="630" viewBox="0 0 1200 630" xmlns="http://www.w3.org/2000/svg">
  <defs>
    <linearGradient id="bg" x1="0" y1="0" x2="1200" y2="630" gradientUnits="userSpaceOnUse">
      <stop offset="0%" stop-color="#0b1022"/>
      <stop offset="100%" stop-color="#0e1533"/>
    </linearGradient>
    <linearGradient id="mark-ring" x1="30" y1="253" x2="150" y2="373" gradientUnits="userSpaceOnUse">
      <stop offset="0%" stop-color="#f4cd7c"/>
      <stop offset="45%" stop-color="#e3a83f"/>
      <stop offset="100%" stop-color="#22d3ee"/>
    </linearGradient>
    <linearGradient id="title-grad" x1="80" y1="0" x2="1000" y2="0" gradientUnits="userSpaceOnUse">
      <stop offset="0%" stop-color="#f4cd7c"/>
      <stop offset="38%" stop-color="#e3a83f"/>
      <stop offset="68%" stop-color="#22d3ee"/>
      <stop offset="100%" stop-color="#d9784f"/>
    </linearGradient>
    <radialGradient id="glow1" cx="50%" cy="50%" r="50%">
      <stop offset="0%" stop-color="#e3a83f" stop-opacity="0.55"/>
      <stop offset="100%" stop-color="#e3a83f" stop-opacity="0"/>
    </radialGradient>
    <radialGradient id="glow2" cx="50%" cy="50%" r="50%">
      <stop offset="0%" stop-color="#22d3ee" stop-opacity="0.35"/>
      <stop offset="100%" stop-color="#22d3ee" stop-opacity="0"/>
    </radialGradient>
  </defs>

  <rect width="1200" height="630" fill="url(#bg)"/>
  <circle cx="140" cy="80" r="260" fill="url(#glow1)"/>
  <circle cx="1080" cy="560" r="300" fill="url(#glow2)"/>

  <!-- faint grid -->
  <g opacity="0.08" stroke="#ffffff">
    <path d="M0 150 H1200 M0 300 H1200 M0 450 H1200"/>
    <path d="M200 0 V630 M500 0 V630 M800 0 V630 M1100 0 V630"/>
  </g>

  <!-- unified brand mark (chip geometry) -->
  <rect x="80" y="253" width="124" height="124" rx="33.8" fill="#0b1022" stroke="url(#mark-ring)" stroke-width="4"/>
  <polygon points="103,331 122,331 113,304" fill="#e3a83f"/>
  <polygon points="126,331 148,331 137,285" fill="#e3a83f"/>
  <polygon points="151,331 173,331 162,278" fill="#e3a83f"/>
  <circle cx="162" cy="271" r="6.5" fill="#22d3ee"/>

  <text x="240" y="300" font-family="'Space Grotesk','Helvetica Neue',Arial,sans-serif" font-weight="700" font-size="54" fill="#ffffff">MB AI GROUP</text>
  <text x="240" y="336" font-family="Helvetica, Arial, sans-serif" font-weight="600" font-size="20" letter-spacing="4" fill="rgba(255,255,255,0.55)">FRONTIER AI · MENA</text>

  <text x="80" y="460" font-family="'Space Grotesk','Helvetica Neue',Arial,sans-serif" font-weight="800" font-size="50" fill="url(#title-grad)">Frontier AI, built for the real world.</text>
  <text x="80" y="504" font-family="Helvetica, Arial, sans-serif" font-weight="500" font-size="24" fill="#aab2c5">AutoLeadss · Virlo Studio · IBNI · TUT — Cairo &amp; Dubai</text>
</svg>
